<?xml version="1.0" encoding="UTF-8"?>
<svg xmlns="http://www.w3.org/2000/svg"
     viewBox="0 0 573.88 740.47"
     preserveAspectRatio="xMidYMid meet"
     role="img"
     aria-labelledby="title desc">
  <title id="title">中部地方</title>
  <desc id="desc">東北地方と同じ精度基準で、自然な海岸線と主要な島を残しながら簡略化した中部地方の地図です。県境は表示していません。</desc>
  <g transform="translate(-1036.9023 -1750.4746)">
    <path d="M 1556.1951,2327.9471 C 1544.6597,2327.6928 1536.365,2319.2835 1536.2928,2308.894 C 1536.2651,2304.9131 1537.7798,2298.9813 1530.358,2291.7982 C 1527.9534,2289.4709 1524.3007,2289.5102 1519.9315,2289.0735 C 1518.9605,2284.6561 1526.0346,2274.1783 1535.7206,2272.8462 C 1547.0763,2271.2845 1559.3803,2255.1822 1546.4523,2242.326 C 1542.7999,2238.6939 1537.5055,2237.4706 1532.2207,2234.312 C 1518.3443,2230.8961 1507.5967,2226.4957 1499.202,2219.1664 C 1490.4781,2211.5497 1483.9184,2204.9509 1476.6479,2199.1152 C 1469.5278,2193.4003 1465.2924,2185.6425 1467.0201,2170.7283 C 1468.3003,2159.6773 1468.9595,2144.4031 1456.2197,2143.5113 C 1426.7389,2141.4652 1428.555,2115.0641 1444.0613,2102.7447 C 1452.7769,2095.8204 1459.3691,2086.4884 1468.869,2080.5902 C 1483.1026,2081.2687 1489.8495,2070.7474 1496.3723,2051.5978 C 1503.8388,2029.6778 1526.857,2028.0096 1531.7331,2036.7767 C 1529.8983,2027.0546 1528.1116,2017.6167 1519.3866,2009.9947 C 1513.2804,2004.6605 1510.0913,1998.6501 1510.0523,1977.4861 C 1510.0322,1966.5955 1510.9979,1957.9053 1528.4025,1956.0211 C 1535.5875,1955.2433 1558.5682,1947.9196 1555.8348,1924.0832 C 1554.5824,1913.1622 1557.2402,1908.4617 1568.7176,1892.0877 C 1558.0651,1886.199 1549.3087,1873.0097 1550.5903,1861.3592 C 1551.4746,1853.32 1550.6292,1847.2653 1563.2384,1837.7548 C 1580.7817,1824.5227 1572.9416,1815.1025 1551.8796,1799.3515 C 1544.4231,1793.7753 1533.4496,1789.0078 1526.1778,1780.4746 C 1524.6093,1784.7468 1522.604,1789.0186 1520.2502,1792.0003 C 1517.6187,1795.3338 1518.738,1814.6732 1518.5002,1824.0003 C 1517.9177,1846.8471 1500.2307,1874.8227 1481.5002,1884.0003 C 1473.5664,1887.8877 1447.7215,1911.9235 1445.5002,1929.7504 C 1444.9195,1934.4105 1441.759,1943.2041 1436.0002,1951.5004 C 1431.9343,1957.3577 1429.2224,1968.7401 1427.5002,1974.0004 C 1425.4298,1980.3239 1422.8849,1987.8208 1418.7502,1992.7504 C 1414.3191,1998.0332 1408.7323,2006.168 1403.0002,2010.0004 C 1398.6863,2012.8844 1392.9259,2017.1187 1389.0002,2021.0004 C 1385.4163,2024.5441 1380.1138,2028.9713 1375.5002,2031.0004 C 1370.8959,2033.0255 1365.8178,2036.6257 1363.0002,2039.7504 C 1359.2387,2043.9216 1351.7548,2046.1306 1347.0002,2050.5004 C 1340.9605,2056.0513 1335.3939,2056.9369 1323.2502,2061.0004 C 1317.3105,2062.9877 1307.0785,2061.3153 1302.2502,2065.0004 C 1299.5468,2067.0636 1295.2548,2072.5142 1292.0002,2073.5004 C 1290.1203,2074.0701 1286.2225,2078.2495 1286.2502,2083.2504 C 1286.2971,2091.7269 1278.4709,2101.9689 1264.0002,2100.0004 C 1248.1079,2097.8383 1236.9871,2071.6805 1241.5002,2067.0004 C 1247.9512,2060.3107 1245.0375,2055.2192 1235.5002,2053.0004 C 1225.0264,2050.5637 1231.6847,2039.3676 1239.0002,2035.5004 C 1245.9379,2031.8327 1258.4559,2024.5403 1263.5002,2016.0004 C 1264.8755,2013.6721 1269.052,2006.5752 1271.2502,2005.0004 C 1273.8055,2003.1698 1278.0511,1988.2697 1274.0002,1982.5004 C 1267.8015,1973.6723 1249.3367,1979.879 1245.0002,1988.0004 C 1242.5351,1992.6169 1239.0264,1999.6425 1220.5002,2001.5004 C 1215.3771,2002.0142 1204.7437,2009.3903 1201.5002,2014.0004 C 1199.1129,2017.3935 1195.4512,2021.5843 1192.5002,2024.5004 C 1181.8245,2035.0497 1188.9239,2048.3996 1194.5002,2059.0004 C 1199.0499,2067.6496 1204.8215,2112.6845 1193.7502,2129.0004 C 1190.9913,2133.0662 1187.991,2139.9223 1185.2502,2144.0004 C 1176.3976,2157.1722 1163.3242,2173.658 1154.0002,2186.5004 C 1149.134,2193.2027 1141.4532,2201.4718 1138.0002,2209.0004 C 1134.066,2217.5781 1127.6774,2224.4875 1122.2502,2230.2504 C 1113.0711,2239.9969 1118.7566,2249.5105 1128.5002,2260.5004 C 1133.0729,2265.658 1147.5032,2286.0262 1121.7502,2300.0004 C 1117.895,2302.0923 1108.7639,2300.544 1105.2502,2311.5004 C 1103.9546,2315.5404 1099.5576,2319.6885 1096.0002,2322.0004 C 1092.4965,2324.2773 1087.6136,2324.771 1083.0002,2327.0004 C 1079.7646,2328.564 1074.6686,2330.7007 1069.9088,2327.6465 C 1066.9023,2339.7847 1084.0226,2351.7762 1104.4073,2347.377 C 1112.2115,2341.4724 1116.7738,2338.5535 1120.4352,2334.0992 C 1123.4797,2330.3954 1126.804,2329.3463 1129.6774,2327.6372 C 1133.2318,2325.5229 1136.0831,2324.847 1138.9488,2321.3022 C 1146.7178,2311.6922 1150.7345,2310.2219 1154.8152,2305.9929 C 1160.5589,2300.0404 1162.2763,2297.218 1165.7935,2292.0613 C 1170.312,2299.1417 1177.4401,2308.9773 1181.298,2321.6189 C 1184.2271,2331.2169 1188.9547,2330.5866 1190.2716,2337.1829 C 1195.5955,2363.8492 1200.3048,2373.8431 1227.2452,2371.2766 C 1231.1656,2383.712 1240.2216,2384.2243 1243.2502,2393.7504 C 1256.4087,2389.5589 1258.7763,2386.7552 1257.5002,2404.5004 C 1257.0951,2410.1343 1258.0502,2418.1835 1261.0002,2423.0004 C 1272.2313,2441.3387 1271.3352,2432.3749 1290.5002,2426.0004 C 1293.7113,2424.9323 1298.1297,2423.8041 1301.5002,2423.5004 C 1324.8602,2421.3945 1312.9817,2435.0766 1307.5002,2438.5004 C 1271.5675,2460.9441 1296.4363,2453.5594 1312.5002,2447.5004 C 1322.4871,2443.7335 1351.906,2437.5315 1354.7502,2437.0004 C 1376.1085,2433.0124 1412.3781,2437.3562 1434.0002,2434.5004 C 1442.4832,2433.38 1448.7112,2438.3156 1451.0002,2419.2504 C 1451.359,2416.2617 1450.3447,2408.9072 1460.2502,2399.5004 C 1465.1338,2394.8627 1468.2499,2385.3761 1468.5002,2374.0004 C 1468.6477,2367.2973 1474.1086,2359.4899 1480.0002,2357.5004 C 1484.2322,2356.0713 1490.2979,2351.0466 1498.7502,2347.2504 C 1507.2759,2343.4213 1519.4357,2342.2891 1518.5002,2361.5004 C 1518.2167,2367.3214 1518.581,2382.6494 1518.0002,2392.5004 C 1517.1153,2407.5097 1532.4854,2428.9092 1539.0002,2412.0004 C 1540.5956,2407.8596 1536.3936,2404.1378 1547.5002,2397.5004 C 1551.3285,2395.2126 1554.1167,2389.4432 1558.0002,2387.2504 C 1562.6601,2384.6193 1567.3554,2379.0284 1566.5002,2369.5004 C 1565.9638,2363.5244 1566.1874,2355.4922 1566.5002,2349.5004 C 1566.8058,2343.6451 1563.0993,2339.1542 1559.2502,2335.2504 C 1557.442,2333.4165 1556.541,2330.7923 1556.1951,2327.9471 z"
          fill="#F2E8CF"
          stroke="#B9AE92"
          stroke-width="2.2"
          stroke-linejoin="round"
          stroke-linecap="round"
          vector-effect="non-scaling-stroke"/>
    <path d="M 1389,1844.5 C 1396.3658,1822.2139 1419.8481,1836.7828 1408.5,1851.5 C 1406.2842,1854.3737 1405.7913,1859.1087 1404.5,1862.5 C 1399.3894,1875.9223 1405.9697,1879.5538 1409.75,1878.5 C 1419.6287,1875.7461 1420.6355,1884.9696 1415.25,1893.5 C 1410.5765,1900.9027 1400.7987,1907.9786 1395.25,1914.75 C 1391.3247,1919.5403 1383.8864,1927.6399 1382.75,1912.5 C 1382.534,1909.6228 1383.3677,1904.8599 1383.75,1902 C 1384.8494,1893.7761 1381.6975,1890.6524 1379.5,1890 C 1374.272,1888.4479 1369.35,1880.6027 1376.25,1873.25 C 1380.0228,1869.2296 1383.5884,1870.5497 1383.5,1860.75 C 1383.4525,1855.4831 1387.3471,1849.501 1389,1844.5 z"
          fill="#F2E8CF"
          stroke="#B9AE92"
          stroke-width="2.2"
          stroke-linejoin="round"
          stroke-linecap="round"
          vector-effect="non-scaling-stroke"/>
  </g>
</svg>
