<svg xmlns="http://www.w3.org/2000/svg" viewBox="0 0 64 48">
<g fill="none" stroke="#111" stroke-linecap="round" stroke-linejoin="round">
<path d="M6 33h52" stroke-width="3.5"/>
<path d="M17 33V13M47 33V13" stroke-width="3.5"/>
<path d="M14 13h6M44 13h6" stroke-width="3.5"/>
<path d="M17 16c8 10 22 10 30 0" stroke-width="3"/>
<path d="M17 16C12 24 9 27 6 28M47 16c5 8 8 11 11 12" stroke-width="3"/>
<path d="M21 21v12M26 24v9M32 26v7M38 24v9M43 21v12" stroke-width="2.2"/>
<path d="M17 18l6 8M23 18l-6 8M47 18l-6 8M41 18l6 8" stroke-width="2.6"/>
</g>
</svg>